<?xml version="1.0" standalone="no"?>
<svg viewBox="0 0 200 200" xmlns="http://www.w3.org/2000/svg">
  <path fill="#000000" d="M37.4,-63.2C48.2,-58.5,56.5,-48,64.6,-36.5C72.7,-25,80.5,-12.5,80.6,0.1C80.8,12.7,73.3,25.3,65.1,36.6C56.8,47.8,47.9,57.6,36.9,65C25.9,72.5,13,77.6,-0.6,78.6C-14.1,79.6,-28.2,76.5,-39.8,69.4C-51.4,62.3,-60.3,51.1,-66.6,38.9C-72.8,26.7,-76.3,13.3,-78.2,-1.1C-80,-15.5,-80.3,-31,-75.1,-45C-69.8,-59,-59.1,-71.4,-45.7,-74.7C-32.3,-77.9,-16.2,-71.8,-1.4,-69.4C13.3,-66.9,26.6,-67.9,37.4,-63.2Z" transform="translate(100 100)" />
</svg>