<?xml version="1.0" standalone="no"?>
<svg viewBox="0 0 200 200" xmlns="http://www.w3.org/2000/svg">
  <path fill="#FF0066" d="M42.9,-71.3C55.8,-66.9,66.5,-55.7,73,-42.7C79.5,-29.7,81.9,-14.9,80.6,-0.7C79.3,13.4,74.4,26.8,68.7,41.1C62.9,55.5,56.3,70.8,44.7,76.2C33.1,81.7,16.6,77.3,1.1,75.3C-14.3,73.3,-28.5,73.7,-37.7,66.9C-46.8,60,-50.8,45.8,-58.9,33.4C-67,21.1,-79.2,10.5,-82.1,-1.7C-85,-13.9,-78.6,-27.8,-69,-37.6C-59.5,-47.5,-46.8,-53.3,-34.8,-58.1C-22.7,-63,-11.4,-67,1.8,-70.1C15,-73.3,30.1,-75.7,42.9,-71.3Z" transform="translate(100 100)" />
</svg>
