<?xml version="1.0" standalone="no"?>
<svg viewBox="0 0 200 200" xmlns="http://www.w3.org/2000/svg">
  <path fill="#FF0066" d="M41.7,-70.5C54.3,-64.9,65,-54.3,68.7,-41.7C72.5,-29.1,69.4,-14.6,67.7,-1C66.1,12.7,65.9,25.3,60.4,34.9C54.9,44.4,44,50.8,33,58.5C22,66.2,11,75,-0.1,75.3C-11.3,75.5,-22.6,67,-34.8,60.1C-47.1,53.2,-60.3,47.8,-66.7,38C-73.2,28.3,-72.9,14.1,-71.5,0.8C-70.1,-12.5,-67.5,-25,-61,-34.8C-54.6,-44.7,-44.4,-52,-33.6,-58.7C-22.8,-65.4,-11.4,-71.5,1.6,-74.2C14.5,-76.9,29.1,-76.2,41.7,-70.5Z" transform="translate(100 100)" />
</svg>
